<svg width="1947" height="286" viewBox="0 0 1947 286" fill="none" xmlns="http://www.w3.org/2000/svg">
<path d="M43.3446 272.065C43.3446 275.848 43.5608 279.632 43.9932 283.415H0.540456C0.216182 279.415 0 275.308 0 271.201C0 206.886 42.3718 152.408 100.741 134.249L115.117 174.567C73.6101 187.538 43.3446 226.235 43.3446 272.065Z" fill="url(#paint0_linear_161_39)"/>
<path d="M240.609 283.415H190.13L149.704 170.027L134.68 128.088L88.957 0H139.436L187.536 134.79L207.641 190.997L240.609 283.415Z" fill="url(#paint1_linear_161_39)"/>
<path d="M384.692 116.208H328.7V219.111C328.7 239.54 339.293 250.89 358.642 250.89C368.91 250.89 378.747 247.863 385.881 242.242L398.419 272.184C387.07 281.263 370.424 285.803 353.777 285.803C311.406 285.803 287.193 263.104 287.193 220.3V116.208H253.469V82.1592H287.193V37.8418H328.808V82.1592H384.8V116.208H384.692Z" fill="black"/>
<path d="M775.115 167.973V283.414H733.5V172.945C733.5 135.438 715.665 116.954 684.643 116.954C650.918 116.954 628.219 138.572 628.219 180.512V283.414H586.604V172.945C586.604 135.438 568.769 116.954 537.747 116.954C504.022 116.954 481.323 138.572 481.323 180.512V283.414H439.708V82.1488H479.486V108.631C494.294 90.0395 518.074 79.8789 546.826 79.8789C576.335 79.8789 601.304 91.2285 615.356 114.36C631.246 93.1741 659.241 79.8789 691.777 79.8789C741.066 79.8789 775.115 107.875 775.115 167.973Z" fill="black"/>
<path d="M823.537 182.782C823.537 122.575 868.611 79.8789 929.467 79.8789C990.754 79.8789 1035.4 122.683 1035.4 182.782C1035.4 242.88 990.754 285.684 929.467 285.684C868.611 285.684 823.537 242.88 823.537 182.782ZM993.457 182.782C993.457 142.247 966.218 116.198 929.467 116.198C893.148 116.198 865.477 142.356 865.477 182.782C865.477 223.316 893.148 249.366 929.467 249.366C966.218 249.366 993.457 223.208 993.457 182.782Z" fill="black"/>
<path d="M1058.86 262.989L1076.26 230.021C1093.66 241.695 1120.9 250.018 1146.3 250.018C1177.65 250.018 1190.94 240.938 1190.94 225.806C1190.94 184.515 1065.34 222.455 1065.34 141.819C1065.34 103.987 1099.39 79.7744 1151.6 79.7744C1178.08 79.7744 1208.35 86.5842 1226.18 97.6095L1208.78 130.577C1189.86 119.228 1170.51 115.445 1151.27 115.445C1121.33 115.445 1106.63 125.713 1106.63 140.089C1106.63 183.65 1232.23 146.142 1232.23 224.833C1232.23 262.665 1197.43 285.796 1143.28 285.796C1109.55 285.688 1076.26 275.852 1058.86 262.989Z" fill="black"/>
<path d="M1378.91 116.209H1322.92V283.426H1281.31V116.209H1247.58V82.1603H1281.31V67.7842C1281.31 26.9257 1305.95 0.443359 1350.92 0.443359C1366.81 0.443359 1381.94 3.90229 1392.21 11.4687L1380.1 43.2475C1372.97 37.951 1363.46 34.6002 1353.3 34.6002C1332.43 34.6002 1321.84 45.9498 1321.84 68.3246V82.3765H1379.02V116.209H1378.91Z" fill="black"/>
<path d="M1391.45 182.782C1391.45 123.007 1435.01 79.8789 1494.03 79.8789C1553.05 79.8789 1594.66 121.926 1594.66 184.295C1594.66 187.646 1594.34 192.942 1593.91 197.158H1433.5C1438.8 228.612 1464.96 249.366 1502.35 249.366C1525.49 249.366 1544.4 241.799 1558.78 226.342L1581.48 253.257C1563.32 274.443 1535.32 285.793 1501.27 285.793C1434.91 285.684 1391.45 242.88 1391.45 182.782ZM1554.89 167.217C1550.67 136.194 1526.89 115.009 1493.92 115.009C1461.39 115.009 1437.5 135.87 1432.96 167.217H1554.89Z" fill="black"/>
<path d="M1684.27 283.414H1642.65V82.1488H1682.43V112.847C1695.62 91.2285 1720.69 79.8789 1754.74 79.8789V120.413C1751.28 119.981 1748.26 119.656 1745.23 119.656C1707.72 119.656 1684.27 142.031 1684.27 184.727V283.414Z" fill="black"/>
<path d="M1767.51 225.914C1767.51 192.946 1789.13 166.139 1849.98 166.139H1904.89V161.599C1904.89 132.847 1887.49 115.769 1852.69 115.769C1829.66 115.769 1805.77 123.768 1790.21 136.198L1773.13 105.176C1794.32 88.5298 1825.01 79.7744 1857.55 79.7744C1913.97 79.7744 1946.51 107.013 1946.51 163.761V283.31H1906.73V259.854C1894.95 276.068 1873.01 285.58 1842.74 285.58C1797.02 285.688 1767.51 261.043 1767.51 225.914ZM1904.79 195.972H1851.82C1817.34 195.972 1808.69 208.835 1808.69 224.4C1808.69 242.56 1824.26 253.909 1849.98 253.909C1874.95 253.909 1896.14 242.56 1904.89 220.941V195.972H1904.79Z" fill="black"/>
<defs>
<linearGradient id="paint0_linear_161_39" x1="57.5586" y1="134.249" x2="57.5586" y2="283.415" gradientUnits="userSpaceOnUse">
<stop stop-color="#7DE34C"/>
<stop offset="1" stop-color="#15CFB3"/>
</linearGradient>
<linearGradient id="paint1_linear_161_39" x1="225.697" y1="-19.0731" x2="10.0654" y2="282.917" gradientUnits="userSpaceOnUse">
<stop stop-color="#7DE34C"/>
<stop offset="1" stop-color="#15CFB3"/>
</linearGradient>
</defs>
</svg>
